<svg width="14" height="14" viewBox="0 0 14 14" fill="none" xmlns="http://www.w3.org/2000/svg">
<g clip-path="url(#clip0_1545_9255)">
<path d="M3.37 5.85001L5.91 1.79001C6.00843 1.62954 6.14675 1.4973 6.31149 1.40617C6.47622 1.31504 6.66175 1.26813 6.85 1.27001V1.27001C6.99826 1.26466 7.14608 1.28908 7.28474 1.34184C7.4234 1.39459 7.55008 1.47461 7.65729 1.57715C7.7645 1.6797 7.85006 1.8027 7.90893 1.93888C7.96779 2.07506 7.99876 2.22166 8 2.37001V5.28001H12.39C12.5522 5.28527 12.7115 5.32481 12.8573 5.39602C13.0032 5.46723 13.1323 5.56851 13.2362 5.69319C13.3401 5.81788 13.4164 5.96314 13.4602 6.11943C13.5039 6.27572 13.5141 6.43951 13.49 6.60001L12.69 11.76C12.6559 12.0358 12.5222 12.2896 12.3141 12.4737C12.106 12.6579 11.8379 12.7597 11.56 12.76H5C4.68771 12.7612 4.37949 12.6893 4.1 12.55L3.38 12.19" stroke="#000001" stroke-linecap="round" stroke-linejoin="round"/>
<path d="M3.37 5.8501V12.1601" stroke="#000001" stroke-linecap="round" stroke-linejoin="round"/>
<path d="M1 5.8501H3.37V12.1601H1C0.867392 12.1601 0.740215 12.1074 0.646447 12.0137C0.552678 11.9199 0.5 11.7927 0.5 11.6601V6.3501C0.5 6.21749 0.552678 6.09031 0.646447 5.99654C0.740215 5.90278 0.867392 5.8501 1 5.8501V5.8501Z" stroke="#000001" stroke-linecap="round" stroke-linejoin="round"/>
</g>
<defs>
<clipPath id="clip0_1545_9255">
<rect width="14" height="14" fill="white"/>
</clipPath>
</defs>
</svg>
