<?xml version="1.0" encoding="UTF-8"?>
<svg id="Ebene_2" data-name="Ebene 2" xmlns="http://www.w3.org/2000/svg" viewBox="0 0 239.08 252.48">
  <g id="Ebene_1-2" data-name="Ebene 1">
    <g>
      <path d="M153.82,208.27c-.02,4.86-4.49,8-8.46,7.7-4.81-.36-7.52-4.22-7.51-8.9l.03-24.91c-10.28-4.01-15.98-14.36-14.25-24.8s11.07-18.61,21.75-18.83,20.41,7.44,22.57,18-3.51,21.44-14.03,25.62l-.09,26.12ZM143.58,154.95c-3.73,1.36-5,5.37-3.86,8.38,1.33,3.51,5.11,5.02,8.29,3.92,3.48-1.21,5.11-4.95,4.13-8.09-1.11-3.55-4.83-5.56-8.56-4.2Z"/>
      <path d="M218.46,93.77l-17.93-.07-80.05.02v-33.48C120.48,27.02,93.46,0,60.24,0S0,27.02,0,60.24v12.05h18v-12.05c0-23.29,18.95-42.24,42.24-42.24s42.24,18.95,42.24,42.24v33.49h-28.88c-11.34,0-20.93,8.86-20.94,20.53l-.03,117.23c0,11.49,8.89,20.99,20.59,20.99l145.46-.02c11.82,0,20.4-9.74,20.4-20.97v-116.72c0-11.64-8.95-20.95-20.62-21ZM223.1,231.45c0,2.77-1.48,4.61-4.51,5.08H73.28c-2.88-.01-4.66-2.37-4.66-5.06v-116.7c0-2.69,1.77-5.05,4.65-5.05h145.1c2.92-.01,4.73,2.31,4.73,5.06v116.67Z"/>
    </g>
  </g>
</svg>