<?xml version="1.0" encoding="UTF-8"?>
<svg id="Ebene_2" data-name="Ebene 2" xmlns="http://www.w3.org/2000/svg" viewBox="0 0 236.29 235.78">
  <g id="Ebene_1-2" data-name="Ebene 1">
    <g id="Ve7ZJI.tif">
      <g>
        <path d="M56.8,231.09c-1.66,2.92-4,4.59-7.22,4.68h-21.5c-1.55.01-3.62-1.06-4.42-1.96-3.52-3.99,2.73-12.87,4.97-16.7l32.37-55.38-35.88.27c-6.42.05-12.48-.02-18.82-.33-7.78-1.05-6.2-10.53-6.14-16.78l.08-9.02c.04-4.86,6.02-5.5,9.89-5.53l-.02-114.65V6c0-3.12,2.52-5.88,6.19-5.88L193.78.03,218.92,0c3.61,0,6.89,2.47,6.89,6.75l.05,123.57,4.52.2c5.98.27,6.03,9.46,5.88,13.84l-.38,11.07c.11,3.16-2.31,6.15-5.78,6.16l-55,.09,37.28,64.5c1.06,1.84,1.25,4.32.37,6.03-.71,1.38-3,3.32-5.07,3.34l-19.74.2c-4.04.26-7.06-1.7-8.97-5.02l-15.5-26.94-91.08.02-15.57,27.3ZM197.84,112.12c3.68.02,6.04,3.07,6.04,6.25l.02,12.11,9.97-.07-.02-118.33H22.13s0,118.54,0,118.54h130.93c-.19-4.64-.28-8.65-.03-12.93.83-1.88,1.62-4.3,3.6-4.96,4.21-1.39,8.44-.74,12.81-.72l28.4.12ZM191.89,130.46v-6.57s-26.72.03-26.72.03l.12,6.54h26.6ZM223.79,149.63l-.1-7.19H12.15s.15,7.2.15,7.2h211.49ZM47.27,223.57l35.73-61.74-8.19-.18-35.87,62.01,8.32-.09ZM156.43,191.74l-17.32-30.11h-42.24s-17.33,30.16-17.33,30.16l76.88-.05ZM196.95,223.52l-35.75-61.88-8.19.19,35.78,61.88c2.92.05,5.43.04,8.16-.19Z"/>
        <path d="M93.58,71.13c3.01-1.6,6.42-1.66,9.87-2.12-1.47-8.14-3.31-15.7-6.7-23.68l-14.22,53.48c-.97,3.66-5.49,5.59-8.46,3.65-2.14-1.4-3.56-4.73-2.83-7.51l17.98-68c.74-2.8,2.81-4.57,5.06-4.89,2.76-.39,4.98.8,6.37,3.37,11.59,21.49,17.45,45.37,16.13,69.75-.2,3.64-3.6,5.8-6.38,5.55-3.68-.33-5.68-3.16-5.55-6.8.15-4.28.14-8.52,0-12.76l-7.71.56c-2.63.19-4.91-1.56-5.61-3.52-.91-2.55-.8-5.58,2.03-7.08Z"/>
        <path d="M161.82,80.57c-.3,7.03,7.84,16.82-1,19.42-2.84.84-6.27-.54-7.62-4.3-7.09,5.59-17.88,7.55-23.48-.99-1.91-2.91-2.79-6.22-3.24-9.75-1.28-9.89,3.75-19.37,12.61-23.69,5.97-2.92,11.74-1.32,17.03,1.97,2.57,1.6,4.97,2.35,5.69,6.04s.18,7.44.02,11.31ZM143.57,87.76c5.74-4.18,5.92-8.09,5.6-14.14-2.41-2.62-6.16-1.92-8.35.79-2.77,3.41-3.24,8.22-1.68,12.4.63,1.69,2.72,2.21,4.44.96Z"/>
      </g>
    </g>
  </g>
</svg>