<?xml version="1.0" encoding="UTF-8"?>
<svg id="Ebene_2" data-name="Ebene 2" xmlns="http://www.w3.org/2000/svg" viewBox="0 0 186.45 246.22">
  <g id="Ebene_2-2" data-name="Ebene 2">
    <g id="Ebene_1-2" data-name="Ebene 1-2">
      <g id="_3yBwu0.tif" data-name=" 3yBwu0.tif">
        <g>
          <path d="M166.05,246.2l-145.46.02c-11.7,0-20.59-9.5-20.59-20.99l.03-117.23c0-11.67,9.6-20.53,20.94-20.53h17.62l-.03-32.37C38.54,24.92,62.49.58,92.21,0c29.58-.56,55.48,22.89,55.58,53.09l.11,34.33,17.93.07c11.67.05,20.62,9.36,20.62,21v116.72c0,11.23-8.59,20.97-20.4,20.97h0ZM131.91,87.47l-.04-32.92c-.03-21.53-17.61-38.58-38.69-38.56s-38.63,17.04-38.61,38.56l.03,32.94h77.31v-.02ZM165.96,230.27c3.03-.47,4.51-2.32,4.51-5.08v-116.66c0-2.76-1.81-5.07-4.73-5.07H20.64c-2.89,0-4.65,2.37-4.65,5.06v116.69c0,2.7,1.78,5.06,4.66,5.06h145.31Z"/>
          <path d="M101.18,202.01c-.02,4.86-4.49,8-8.46,7.7-4.81-.36-7.52-4.22-7.51-8.9l.03-24.91c-10.28-4.01-15.98-14.36-14.25-24.8s11.07-18.61,21.75-18.83,20.41,7.44,22.57,18-3.51,21.44-14.03,25.62l-.09,26.12h-.01ZM90.94,148.69c-3.73,1.36-5,5.37-3.86,8.38,1.33,3.51,5.11,5.02,8.29,3.92,3.48-1.21,5.11-4.95,4.13-8.09-1.11-3.55-4.83-5.56-8.56-4.2h0Z"/>
        </g>
      </g>
    </g>
  </g>
</svg>